<svg width="50" height="50" viewBox="0 0 50 50" fill="none" xmlns="http://www.w3.org/2000/svg">
<circle cx="25" cy="25" r="25" fill="white"/>
<path d="M31.467 9H18.533C13.2765 9 9 13.2765 9 18.533V31.467C9 36.7235 13.2765 41 18.533 41H31.467C36.7235 41 41 36.7235 41 31.467V18.533C40.9999 13.2765 36.7235 9 31.467 9ZM37.7808 31.467C37.7808 34.954 34.954 37.7808 31.467 37.7808H18.533C15.046 37.7808 12.2192 34.954 12.2192 31.467V18.533C12.2192 15.0459 15.046 12.2192 18.533 12.2192H31.467C34.954 12.2192 37.7808 15.0459 37.7808 18.533V31.467Z" fill="#151617"/>
<path d="M25 16.7236C20.4364 16.7236 16.7236 20.4364 16.7236 24.9999C16.7236 29.5634 20.4364 33.2763 25 33.2763C29.5636 33.2763 33.2763 29.5635 33.2763 24.9999C33.2763 20.4363 29.5636 16.7236 25 16.7236ZM25 30.0571C22.207 30.0571 19.9428 27.793 19.9428 25C19.9428 22.207 22.207 19.9428 25 19.9428C27.793 19.9428 30.0571 22.207 30.0571 25C30.0571 27.7929 27.7929 30.0571 25 30.0571Z" fill="#151617"/>
<path d="M33.2923 18.7691C34.3875 18.7691 35.2754 17.8812 35.2754 16.7859C35.2754 15.6906 34.3875 14.8027 33.2923 14.8027C32.197 14.8027 31.3091 15.6906 31.3091 16.7859C31.3091 17.8812 32.197 18.7691 33.2923 18.7691Z" fill="#151617"/>
</svg>
