<svg width="40" height="40" viewBox="0 0 40 40" fill="none" xmlns="http://www.w3.org/2000/svg">
<path d="M17.3347 18.9099C17.1631 18.586 17.0952 18.492 17.011 18.343C12.946 12.1369 3.15559 9.31557 0 8.09766V26.9494C5.85482 22.3174 10.6481 19.6192 17.3347 18.9099Z" fill="white"/>
<path d="M1.07471 27.947L27.8535 39.8217L39.7897 27.8758V4.81641C39.466 6.43597 37.4659 7.36236 35.99 9.83706C34.0481 13.0956 33.8378 16.2602 33.8216 19.0135V18.6896C33.8216 23.8916 29.708 27.7397 24.5037 27.8596C20.4322 27.9535 13.9851 26.0133 11.493 25.7703C5.7029 25.2035 1.07471 27.947 1.07471 27.947Z" fill="white"/>
<path d="M27.277 12.1532C25.6588 14.1874 23.2185 13.9185 20.1567 12.5419C19.3994 12.218 18.1922 11.7742 17.451 11.5183C15.6839 10.9515 13.9718 10.4494 12.4312 10.0186C8.60437 9.04754 4.72644 8.29057 0.815439 7.75124L0.67627 7.73504L21.885 0V3.98089H39.6372C39.2353 4.56017 38.7307 5.0608 38.1484 5.45793C38.1484 5.45793 32.0412 7.16171 30.2999 8.02332C28.0214 9.1473 28.3807 10.7798 27.277 12.1532Z" fill="white"/>
</svg>
