<svg width="40" height="40" viewBox="0 0 40 40" fill="none" xmlns="http://www.w3.org/2000/svg">
<path fill-rule="evenodd" clip-rule="evenodd" d="M25.3648 11.6149C25.4809 11.4985 25.6188 11.4061 25.7707 11.3431C25.9226 11.2801 26.0854 11.2477 26.2498 11.2477C26.4142 11.2477 26.577 11.2801 26.7289 11.3431C26.8807 11.4061 27.0187 11.4985 27.1348 11.6149L34.6348 19.1149C34.7512 19.231 34.8436 19.369 34.9066 19.5208C34.9696 19.6727 35.002 19.8355 35.002 19.9999C35.002 20.1643 34.9696 20.3271 34.9066 20.479C34.8436 20.6309 34.7512 20.7688 34.6348 20.8849L27.1348 28.3849C26.9001 28.6196 26.5817 28.7515 26.2498 28.7515C25.9179 28.7515 25.5995 28.6196 25.3648 28.3849C25.1301 28.1502 24.9982 27.8319 24.9982 27.4999C24.9982 27.168 25.1301 26.8496 25.3648 26.6149L31.9823 19.9999L25.3648 13.3849C25.2484 13.2688 25.156 13.1309 25.093 12.979C25.03 12.8271 24.9976 12.6643 24.9976 12.4999C24.9976 12.3355 25.03 12.1727 25.093 12.0208C25.156 11.869 25.2484 11.731 25.3648 11.6149Z" fill="#FFD600"/>
<path fill-rule="evenodd" clip-rule="evenodd" d="M5 20C5 19.6685 5.1317 19.3505 5.36612 19.1161C5.60054 18.8817 5.91848 18.75 6.25 18.75H32.5C32.8315 18.75 33.1495 18.8817 33.3839 19.1161C33.6183 19.3505 33.75 19.6685 33.75 20C33.75 20.3315 33.6183 20.6495 33.3839 20.8839C33.1495 21.1183 32.8315 21.25 32.5 21.25H6.25C5.91848 21.25 5.60054 21.1183 5.36612 20.8839C5.1317 20.6495 5 20.3315 5 20Z" fill="#FFD600"/>
</svg>
