<svg width="40" height="40" viewBox="0 0 40 40" fill="none" xmlns="http://www.w3.org/2000/svg">
<g clip-path="url(#clip0)">
<path d="M32.3961 9.81254L19.0627 4.25698C18.6566 4.0885 18.2212 4.00177 17.7815 4.00177C17.3418 4.00177 16.9064 4.0885 16.5002 4.25698L3.16688 9.81254C1.92383 10.3264 1.11133 11.5417 1.11133 12.8889C1.11133 26.6737 9.06272 36.2014 16.4933 39.2986C17.3127 39.6389 18.2363 39.6389 19.0558 39.2986C25.0072 36.8195 34.4447 28.257 34.4447 12.8889C34.4447 11.5417 33.6322 10.3264 32.3961 9.81254ZM17.7849 34.9931L17.778 8.53476L29.9933 13.625C29.7641 24.1389 24.2919 31.757 17.7849 34.9931Z" fill="#FFD600"/>
</g>
<g clip-path="url(#clip1)">
<path d="M34.3961 5.81254L21.0627 0.256983C20.6566 0.0884959 20.2212 0.00177002 19.7815 0.00177002C19.3418 0.00177002 18.9064 0.0884959 18.5002 0.256983L5.16688 5.81254C3.92383 6.32643 3.11133 7.54171 3.11133 8.88893C3.11133 22.6737 11.0627 32.2014 18.4933 35.2986C19.3127 35.6389 20.2363 35.6389 21.0558 35.2986C27.0072 32.8195 36.4447 24.257 36.4447 8.88893C36.4447 7.54171 35.6322 6.32643 34.3961 5.81254ZM19.7849 30.9931L19.778 4.53476L31.9933 9.62504C31.7641 20.1389 26.2919 27.757 19.7849 30.9931Z" fill="#151617"/>
</g>
<defs>
<clipPath id="clip0">
<rect width="35.5556" height="35.5556" fill="white" transform="translate(0 4)"/>
</clipPath>
<clipPath id="clip1">
<rect width="35.5556" height="35.5556" fill="white" transform="translate(2)"/>
</clipPath>
</defs>
</svg>
