<svg width="40" height="40" viewBox="0 0 40 40" fill="none" xmlns="http://www.w3.org/2000/svg">
<path d="M0 22.8442V35H22V22.8442L11 17L0 22.8442Z" fill="#FFD600"/>
<path d="M2 16.8442V29H24V16.8442L13 11L2 16.8442Z" fill="#151617"/>
<path d="M37.9968 16.5952C37.9979 16.5496 37.9984 16.5038 37.9984 16.4579C37.9984 13.4436 35.7602 11 32.9992 11C30.2383 11 28.0001 13.4436 28.0001 16.4579C28.0001 16.5139 28.0009 16.5697 28.0024 16.6252C27.9994 16.7232 27.9993 16.8172 28.0017 16.9065V30.1402L32.7269 35L38 30.1402V16.9065C38 16.8044 37.9991 16.7005 37.9968 16.5952Z" fill="#FFD600"/>
<path d="M39.9968 10.5952C39.9979 10.5496 39.9984 10.5038 39.9984 10.4579C39.9984 7.4436 37.7602 5 34.9992 5C32.2383 5 30.0001 7.4436 30.0001 10.4579C30.0001 10.5139 30.0009 10.5697 30.0024 10.6252C29.9994 10.7232 29.9993 10.8172 30.0017 10.9065V24.1402L34.7269 29L40 24.1402V10.9065C40 10.8044 39.9991 10.7005 39.9968 10.5952Z" fill="#151617"/>
</svg>
