<svg width="40" height="40" viewBox="0 0 40 40" fill="none" xmlns="http://www.w3.org/2000/svg">
<path d="M15.9884 18.1112L18.0513 20.1741L3.09526 36.1616L0.000911227 33.0673L15.9884 18.1112Z" fill="#FFD600"/>
<path fill-rule="evenodd" clip-rule="evenodd" d="M10.573 10.6334C9.71854 11.4879 9.71854 12.8733 10.573 13.7277C11.3396 14.4944 12.5336 14.5732 13.3881 13.9642L22.1981 22.7743C21.5891 23.6288 21.6679 24.8228 22.4346 25.5894C23.289 26.4439 24.6744 26.4439 25.5289 25.5894L30.1704 20.9479C31.0249 20.0934 31.0249 18.708 30.1704 17.8535C29.4038 17.0869 28.2099 17.0081 27.3554 17.617L18.5453 8.80701C19.1543 7.9525 19.0755 6.75851 18.3089 5.99188C17.4544 5.1374 16.069 5.13739 15.2145 5.99187L10.573 10.6334Z" fill="#FFD600"/>
<path d="M10.3926 40.0001C10.3926 38.7917 11.3722 37.8121 12.5806 37.8121H31.5436C32.752 37.8121 33.7316 38.7917 33.7316 40.0001H10.3926Z" fill="#FFD600"/>
<path d="M13.1289 37.8122C13.1289 36.6038 14.1085 35.6241 15.3169 35.6241H28.8098C30.0182 35.6241 30.9979 36.6038 30.9979 37.8122H13.1289Z" fill="#FFD600"/>
<path d="M15.8633 35.6241C15.8633 34.4157 16.8429 33.4361 18.0513 33.4361H26.0741C27.2825 33.4361 28.2621 34.4157 28.2621 35.6241H15.8633Z" fill="#FFD600"/>
<path d="M15.9884 13.6667L18.0513 15.7296L3.09526 31.717L0.000911227 28.6227L15.9884 13.6667Z" fill="#151617"/>
<path fill-rule="evenodd" clip-rule="evenodd" d="M10.573 6.1887C9.71854 7.04318 9.71854 8.42857 10.573 9.28305C11.3396 10.0497 12.5336 10.1285 13.3881 9.51954L22.1981 18.3296C21.5891 19.1841 21.6679 20.3781 22.4346 21.1447C23.289 21.9992 24.6744 21.9992 25.5289 21.1447L30.1704 16.5032C31.0249 15.6487 31.0249 14.2633 30.1704 13.4088C29.4038 12.6422 28.2099 12.5634 27.3554 13.1723L18.5453 4.36231C19.1543 3.5078 19.0755 2.31381 18.3089 1.54717C17.4544 0.692694 16.069 0.692692 15.2145 1.54717L10.573 6.1887Z" fill="#151617"/>
<path d="M10.3926 35.5555C10.3926 34.3471 11.3722 33.3675 12.5806 33.3675H31.5436C32.752 33.3675 33.7316 34.3471 33.7316 35.5555H10.3926Z" fill="#151617"/>
<path d="M13.1289 33.3676C13.1289 32.1592 14.1085 31.1796 15.3169 31.1796H28.8098C30.0182 31.1796 30.9979 32.1592 30.9979 33.3676H13.1289Z" fill="#151617"/>
<path d="M15.8633 31.1796C15.8633 29.9711 16.8429 28.9915 18.0513 28.9915H26.0741C27.2825 28.9915 28.2621 29.9711 28.2621 31.1796H15.8633Z" fill="#151617"/>
</svg>
