<svg width="40" height="40" viewBox="0 0 40 40" fill="none" xmlns="http://www.w3.org/2000/svg">
<path d="M35.8595 29.077C36.125 29.2364 36.3561 29.4463 36.5396 29.6946C36.91 30.1948 37.0653 30.8204 36.9716 31.4341C36.8779 32.0478 36.5427 32.5996 36.0396 32.9683L28.0691 38.8025C27.0124 39.5712 25.7372 39.9871 24.4271 39.9901H3.94444C3.69449 39.9885 3.45525 39.8891 3.2785 39.7137C3.10175 39.5382 3.0017 39.3008 3 39.0526V33.4276C3.0017 33.1795 3.10175 32.9421 3.2785 32.7666C3.45525 32.5911 3.69449 32.4918 3.94444 32.4901H7.21222L9.95701 30.2788C11.1946 29.2834 12.7393 28.7404 14.3322 28.7407H23.7766C24.0517 28.7407 24.3235 28.8002 24.5731 28.9151C24.8227 29.03 25.044 29.1975 25.2217 29.406C25.3994 29.6145 25.5291 29.859 25.6019 30.1224C25.6747 30.3857 25.6887 30.6617 25.6431 30.931C25.4884 31.8532 24.6177 32.4901 23.6733 32.4901H19.055C18.8045 32.4901 18.5643 32.5889 18.3871 32.7647C18.21 32.9406 18.1105 33.179 18.1105 33.4276C18.1105 33.6763 18.21 33.9147 18.3871 34.0906C18.5643 34.2664 18.8045 34.3651 19.055 34.3651H26.1743L33.2382 29.1983C33.4875 29.0151 33.7709 28.8825 34.072 28.8083C34.3731 28.734 34.686 28.7195 34.9927 28.7656C35.2995 28.8117 35.5941 28.9175 35.8595 29.077Z" fill="#FFD600"/>
<rect x="19.0078" y="15" width="5" height="10" rx="1" fill="#FFD600"/>
<rect x="19.0078" y="8" width="5" height="5" rx="2.5" fill="#FFD600"/>
<path d="M35.8595 25.077C36.125 25.2364 36.3561 25.4463 36.5396 25.6946C36.91 26.1948 37.0653 26.8204 36.9716 27.4341C36.8779 28.0478 36.5427 28.5996 36.0396 28.9683L28.0691 34.8025C27.0124 35.5712 25.7372 35.9871 24.4271 35.9901H3.94444C3.69449 35.9885 3.45525 35.8891 3.2785 35.7137C3.10175 35.5382 3.0017 35.3008 3 35.0526V29.4276C3.0017 29.1795 3.10175 28.9421 3.2785 28.7666C3.45525 28.5911 3.69449 28.4918 3.94444 28.4901H7.21222L9.95701 26.2788C11.1946 25.2834 12.7393 24.7404 14.3322 24.7407H23.7766C24.0517 24.7407 24.3235 24.8002 24.5731 24.9151C24.8227 25.03 25.044 25.1975 25.2217 25.406C25.3994 25.6145 25.5291 25.859 25.6019 26.1224C25.6747 26.3857 25.6887 26.6617 25.6431 26.931C25.4884 27.8532 24.6177 28.4901 23.6733 28.4901H19.055C18.8045 28.4901 18.5643 28.5889 18.3871 28.7647C18.21 28.9406 18.1105 29.179 18.1105 29.4276C18.1105 29.6763 18.21 29.9147 18.3871 30.0906C18.5643 30.2664 18.8045 30.3651 19.055 30.3651H26.1743L33.2382 25.1983C33.4875 25.0151 33.7709 24.8825 34.072 24.8083C34.3731 24.734 34.686 24.7195 34.9927 24.7656C35.2995 24.8117 35.5941 24.9175 35.8595 25.077Z" fill="#151617"/>
<rect x="19.0078" y="11" width="5" height="10" rx="1" fill="#151617"/>
<rect x="19.0078" y="4" width="5" height="5" rx="2.5" fill="#151617"/>
</svg>
