<svg width="40" height="40" viewBox="0 0 40 40" fill="none" xmlns="http://www.w3.org/2000/svg">
<path d="M32.3876 13.3338C30.8303 13.3041 29.5555 14.6084 29.5555 16.166V22.2222H29V9.98544C29 8.4278 27.7253 7.1235 26.168 7.15329C24.6589 7.18218 23.4444 8.41454 23.4444 9.93058V22.2222H22.8889V7.27711C22.8889 5.71947 21.6142 4.41517 20.0569 4.44496C18.5478 4.47385 17.3333 5.70621 17.3333 7.22225V22.2222H16.7778V10.0549C16.7778 8.49725 15.5031 7.19294 13.9458 7.22274C12.4367 7.25162 11.2222 8.48398 11.2222 10V26.3884L9.02444 23.3662C8.12215 22.1255 6.38493 21.8511 5.1441 22.7535C3.90347 23.6559 3.62917 25.3931 4.53146 26.6338L13.2537 38.6272C13.563 39.0524 13.9684 39.3985 14.4369 39.6371C14.9054 39.8756 15.4237 40 15.9495 40H29.671C31.2178 40 32.5614 38.9359 32.9158 37.4302L34.7566 29.6066C34.9921 28.6057 35.111 27.5809 35.111 26.5527V16.1111C35.1111 14.5951 33.8967 13.3627 32.3876 13.3338Z" fill="#FFD600"/>
<path d="M32.3876 8.88939C30.8303 8.8596 29.5555 10.1639 29.5555 11.7215V17.7778H29V5.54099C29 3.98335 27.7253 2.67904 26.168 2.70883C24.6589 2.73772 23.4444 3.97008 23.4444 5.48612V17.7778H22.8889V2.83265C22.8889 1.27501 21.6142 -0.0292912 20.0569 0.000500472C18.5478 0.0293894 17.3333 1.26175 17.3333 2.77779V17.7778H16.7778V5.61043C16.7778 4.05279 15.5031 2.74849 13.9458 2.77828C12.4367 2.80717 11.2222 4.03953 11.2222 5.55557V21.9439L9.02444 18.9217C8.12215 17.6811 6.38493 17.4067 5.1441 18.309C3.90347 19.2114 3.62917 20.9486 4.53146 22.1894L13.2537 34.1828C13.563 34.608 13.9684 34.954 14.4369 35.1926C14.9054 35.4312 15.4237 35.5556 15.9495 35.5556H29.671C31.2178 35.5556 32.5614 34.4914 32.9158 32.9857L34.7566 25.1621C34.9921 24.1612 35.111 23.1365 35.111 22.1083V11.6667C35.1111 10.1506 33.8967 8.91828 32.3876 8.88939Z" fill="#151617"/>
</svg>
