<svg width="1170" height="24" viewBox="0 0 1170 24" fill="none" xmlns="http://www.w3.org/2000/svg">
<mask id="mask0" mask-type="alpha" maskUnits="userSpaceOnUse" x="0" y="0" width="1170" height="24">
<rect width="1170" height="24" fill="#FFD600"/>
</mask>
<g mask="url(#mask0)">
<rect width="1172" height="24" fill="#FFD600"/>
<rect x="1139.5" y="-60" width="60" height="289" transform="rotate(30 1139.5 -60)" fill="#151617"/>
<rect x="587.5" y="-60" width="60" height="289" transform="rotate(30 587.5 -60)" fill="#151617"/>
<rect x="449.5" y="-60" width="60" height="289" transform="rotate(30 449.5 -60)" fill="#151617"/>
<rect x="311.5" y="-60" width="60" height="289" transform="rotate(30 311.5 -60)" fill="#151617"/>
<rect x="173.5" y="-60" width="60" height="289" transform="rotate(30 173.5 -60)" fill="#151617"/>
<rect x="35.5" y="-60" width="60" height="289" transform="rotate(30 35.5 -60)" fill="#151617"/>
<rect x="863.5" y="-60" width="60" height="289" transform="rotate(30 863.5 -60)" fill="#151617"/>
<rect x="1001.5" y="-60" width="60" height="289" transform="rotate(30 1001.5 -60)" fill="#151617"/>
<rect x="725.5" y="-60" width="60" height="289" transform="rotate(30 725.5 -60)" fill="#151617"/>
</g>
</svg>
