<svg width="92" height="14" viewBox="0 0 92 14" fill="none" xmlns="http://www.w3.org/2000/svg">
<g clip-path="url(#clip0)">
<path d="M11.4155 13.1686C12.367 12.8821 13.1788 12.3324 13.7216 11.607C14.0306 11.1772 14.2314 10.6972 14.3113 10.1976C14.3911 9.69806 14.3483 9.1898 14.1855 8.7051C13.6013 6.77354 11.5076 5.77343 7.33358 4.93733C5.12402 4.49449 5.56101 3.13163 7.63281 3.36316C7.94349 3.39094 8.23548 3.5032 8.46559 3.68336C8.6957 3.86352 8.85174 4.10204 8.91069 4.36365L13.8209 3.77662C12.9465 1.23133 10.5558 0.515376 7.58719 0.45244C2.32629 0.341062 -0.402548 2.39508 0.310862 5.25849C0.825234 7.32356 3.83408 7.95673 5.28013 8.30689C7.18912 8.76918 8.6401 8.97858 8.60476 9.80896C8.57345 10.5615 6.34958 10.61 5.62767 10.1625C5.3325 9.97281 5.13321 9.69429 5.07036 9.38367L0 10.0653C0.155656 10.7664 0.527894 11.4193 1.07829 11.9567C1.62868 12.4941 2.33728 12.8966 3.13096 13.1225C5.50869 13.8609 9.34367 13.7724 11.4155 13.1686Z" fill="white"/>
<path d="M20.4393 8.87638H23.6535C25.7257 8.85387 26.5255 8.59945 27.4035 8.10474C27.4124 8.10474 27.4205 8.0975 27.4294 8.0975C27.6338 7.96386 27.8299 7.8214 28.0171 7.67067C28.9564 6.91429 29.3523 5.34928 29.2033 4.20308C29.0625 3.16978 27.9818 0.630978 23.776 0.690481L15.0957 0.693904V13.2678L20.4393 13.2724V8.87638ZM20.4313 3.16138H22.4633C23.793 3.16138 24.184 3.99062 24.184 4.75043C24.184 5.32639 23.9474 6.34481 22.4803 6.34481L20.5351 6.33908L20.4317 6.33298L20.4313 3.16138Z" fill="white"/>
<path d="M42.5732 12.2373C44.0429 11.1208 44.4285 10.1913 44.4285 8.1052L44.4312 0.674561H39.2284L39.2508 7.27331C39.2235 8.59192 39.3161 10.4602 37.2045 10.4773C35.1546 10.4945 35.2118 8.74182 35.1676 7.32404L35.1009 0.675306H29.9805L29.9908 8.06821C29.9805 10.2042 30.5069 11.151 31.6904 12.1442C33.0323 13.2683 34.8661 13.5231 36.8529 13.5402C39.4359 13.5612 41.2913 13.2107 42.5732 12.2373Z" fill="white"/>
<path d="M82.137 13.2736V8.39735L85.4625 13.2717H91.986L86.8052 6.88955L91.999 0.687866H85.5278L82.1383 5.5557V0.689403H60.9346V13.2736H82.1383H82.137ZM76.1126 10.1237H66.9711V8.30963H76.1126V10.1237ZM66.9711 3.82818H76.1126V5.64189H66.9711" fill="white"/>
<path d="M51.0178 13.2701L50.9538 8.44197C50.9538 8.44197 53.7225 7.90797 54.3952 11.6521C54.4589 12.2126 54.6289 12.7606 54.8984 13.2747H60.641C60.0682 12.218 59.6153 11.117 59.2884 9.98676C58.7553 8.3344 58.0146 7.72336 56.5305 7.4453C56.5305 7.4453 59.7657 7.22139 59.7934 4.34044C59.814 2.12814 57.8509 0.684814 52.7559 0.684814C50.9462 0.684814 45.5176 0.695477 45.5176 0.695477V13.2762L51.0178 13.2701ZM52.8798 2.96577C54.3433 2.95509 54.7785 3.65845 54.7861 4.5201C54.7924 5.17197 54.5446 6.09008 52.9308 6.10114H51.0911H50.9802L50.9502 2.9856L52.8798 2.96577Z" fill="white"/>
</g>
<defs>
<clipPath id="clip0">
<rect width="92" height="13.2009" fill="white" transform="translate(0 0.44812)"/>
</clipPath>
</defs>
</svg>
