<svg width="50" height="50" viewBox="0 0 50 50" fill="none" xmlns="http://www.w3.org/2000/svg">
<circle cx="25" cy="25" r="25" fill="white"/>
<path d="M19.8054 37C30.3715 37 36.1507 28.1504 36.1507 20.4762C36.1507 20.2248 36.1507 19.9746 36.1339 19.7255C37.2582 18.9034 38.2287 17.8855 39 16.7194C37.9515 17.1891 36.8393 17.4971 35.7005 17.6331C36.8997 16.9073 37.7973 15.7658 38.2261 14.421C37.0984 15.0974 35.8647 15.5742 34.5782 15.8306C33.7121 14.8995 32.5666 14.283 31.3189 14.0764C30.0712 13.8699 28.791 14.0847 27.6763 14.6878C26.5616 15.2909 25.6746 16.2486 25.1525 17.4126C24.6305 18.5766 24.5025 19.8822 24.7883 21.1272C22.5044 21.0114 20.27 20.4114 18.2303 19.3661C16.1906 18.3208 14.3912 16.8535 12.9488 15.0595C12.2142 16.338 11.9892 17.8515 12.3196 19.2918C12.65 20.7321 13.5111 21.9909 14.7274 22.812C13.8132 22.7846 12.9189 22.5353 12.12 22.0851C12.12 22.1088 12.12 22.1338 12.12 22.1587C12.1204 23.4995 12.5795 24.7989 13.4195 25.8365C14.2595 26.8741 15.4287 27.586 16.7288 27.8515C15.8831 28.0847 14.9957 28.1188 14.1349 27.9512C14.502 29.1051 15.2166 30.1142 16.179 30.8373C17.1413 31.5605 18.3031 31.9614 19.5019 31.9842C17.4677 33.6004 14.9548 34.4778 12.3675 34.4751C11.9105 34.4742 11.4538 34.4463 11 34.3913C13.6271 36.0957 16.6839 36.9997 19.8054 36.9955" fill="#151617"/>
</svg>
